<svg width="920" height="220" viewBox="0 0 920 220" fill="none" xmlns="http://www.w3.org/2000/svg">
  <rect width="920" height="220" fill="#F8EFCF"/>

  <g transform="translate(92 34)">
    <circle cx="88" cy="76" r="78" stroke="#74853D" stroke-width="4.5"/>

    <path d="M52 50C44 16 67 8 106 14C106 55 87 73 52 50Z" fill="#345F3A"/>
    <path d="M96 76C100 39 129 28 170 34C167 84 141 102 96 76Z" fill="#466F3E"/>
    <path d="M106 18C98 -7 112 -23 140 -28C144 5 136 22 106 18Z" fill="#647938"/>
    <path d="M120 78C131 62 145 51 160 46" stroke="#F8EFCF" stroke-width="3" stroke-linecap="round"/>

    <path d="M27 111C53 97 88 93 121 97C147 100 171 109 188 121L177 129C160 120 140 114 118 111C88 107 57 112 33 124L27 111Z" fill="#6C7C38"/>

    <path d="M38 117C47 115 50 110 52 102C55 91 58 87 66 86C73 85 76 92 79 102C81 109 83 114 89 116C95 115 98 111 100 103C102 91 106 87 113 87C121 87 125 92 127 103C129 111 132 116 138 117C145 116 148 111 150 101C152 90 156 86 163 86C172 86 175 94 177 104C179 112 183 117 191 118V128H38V117Z" fill="#5F7034"/>

    <path d="M32 125C53 126 77 131 95 142L79 156C60 146 43 136 26 130L32 125Z" fill="#708238"/>
    <path d="M99 144C126 126 162 122 191 127L197 132C166 134 138 143 111 160L82 160L99 144Z" fill="#6A7A34"/>
    <path d="M82 156H111L128 160H63L82 156Z" fill="#F8EFCF"/>
  </g>

  <g stroke="#8A7051" stroke-width="7" stroke-linecap="round" stroke-dasharray="8 12" fill="none">
    <path d="M459 56C503 17 578 18 607 74"/>
    <path d="M575 74C615 52 674 56 703 100"/>
    <path d="M457 117C470 101 495 100 509 121"/>
    <path d="M447 90C454 82 463 81 470 90"/>
    <path d="M527 94C514 82 513 68 530 57"/>
    <path d="M517 167C565 173 625 170 659 147"/>
  </g>

  <text x="470" y="118" fill="#446B50" font-family="Segoe UI, Arial, sans-serif" font-size="52" font-weight="800" letter-spacing="1.2">
    AGRILINK DIRECT
  </text>
</svg>
